# MagicaVoxel @ Ephtracy

# group
o 

# material
mtllib Crossbow_Sobek.mtl
usemtl palette

# normals
vn -1 0 0
vn 1 0 0
vn 0 0 1
vn 0 0 -1
vn 0 -1 0
vn 0 1 0

# texcoords
vt 0.970703 0.5
vt 0.974609 0.5
vt 0.978516 0.5
vt 0.982422 0.5
vt 0.986328 0.5

# verts
v -1.2 0.4 0.1
v -1.2 0.4 -0.2
v -1.2 0.7 0.1
v -1.2 0.7 -0.2
v -1.1 0.5 0.2
v -1.1 0.5 0.1
v -1.1 0.5 -0.2
v -1.1 0.5 -0.3
v -1.1 0.7 0.2
v -1.1 0.7 0.1
v -1.1 0.7 1.19209e-07
v -1.1 0.7 -0.0999999
v -1.1 0.7 -0.2
v -1.1 0.7 -0.3
v -1.1 0.8 0.2
v -1.1 0.8 1.19209e-07
v -1.1 0.8 -0.0999999
v -1.1 0.8 -0.3
v -1 0.5 0.5
v -1 0.5 0.2
v -1 0.5 -0.3
v -1 0.5 -0.6
v -1 0.7 0.5
v -1 0.7 0.2
v -1 0.7 -0.3
v -1 0.7 -0.6
v -0.9 0.5 0.7
v -0.9 0.5 0.5
v -0.9 0.5 -0.6
v -0.9 0.5 -0.8
v -0.9 0.7 0.7
v -0.9 0.7 0.5
v -0.9 0.7 -0.6
v -0.9 0.7 -0.8
v -0.8 0.5 0.9
v -0.8 0.5 0.7
v -0.8 0.5 -0.8
v -0.8 0.5 -1
v -0.8 0.7 0.9
v -0.8 0.7 0.7
v -0.8 0.7 -0.8
v -0.8 0.7 -1
v -0.7 0.5 1
v -0.7 0.5 0.9
v -0.7 0.5 -1
v -0.7 0.5 -1.1
v -0.7 0.7 1
v -0.7 0.7 0.9
v -0.7 0.7 -1
v -0.7 0.7 -1.1
v -0.6 0.5 1.1
v -0.6 0.5 1
v -0.6 0.5 -1.1
v -0.6 0.5 -1.2
v -0.6 0.7 1.1
v -0.6 0.7 1
v -0.6 0.7 -1.1
v -0.6 0.7 -1.2
v -0.5 0.5 1.2
v -0.5 0.5 1.1
v -0.5 0.5 -1.2
v -0.5 0.5 -1.3
v -0.5 0.7 1.2
v -0.5 0.7 1.1
v -0.5 0.7 -1.2
v -0.5 0.7 -1.3
v -0.4 0.5 1.3
v -0.4 0.5 1.2
v -0.4 0.5 -1.3
v -0.4 0.5 -1.4
v -0.4 0.7 1.3
v -0.4 0.7 1.2
v -0.4 0.7 -1.3
v -0.4 0.7 -1.4
v -0.2 0.2 0.1
v -0.2 0.2 -0.2
v -0.2 0.4 0.1
v -0.2 0.4 -0.2
v 0 0.7 1.19209e-07
v 0 0.7 -0.0999999
v 0 0.8 1.19209e-07
v 0 0.8 -0.0999999
v 0.0999999 0.3 0.1
v 0.0999999 0.3 -0.2
v 0.0999999 0.5 0.1
v 0.0999999 0.5 -0.2
v 0.4 0.3 0.1
v 0.4 0.3 -0.2
v 0.4 0.4 0.1
v 0.4 0.4 -0.2
v 0.7 0.2 0.1
v 0.7 0.2 -0.2
v 0.7 0.3 0.1
v 0.7 0.3 -0.2
v 1 0.1 0.1
v 1 0.1 -0.2
v 1 0.2 0.1
v 1 0.2 -0.2
v 1 0.6 0.1
v 1 0.6 -0.2
v 1 0.7 0.1
v 1 0.7 -0.2
v -0.8 0.5 0.4
v -0.8 0.5 0.2
v -0.8 0.5 -0.3
v -0.8 0.5 -0.5
v -0.8 0.7 0.4
v -0.8 0.7 0.2
v -0.8 0.7 -0.3
v -0.8 0.7 -0.5
v -0.7 0.5 0.7
v -0.7 0.5 0.4
v -0.7 0.5 -0.5
v -0.7 0.5 -0.8
v -0.7 0.7 0.7
v -0.7 0.7 0.4
v -0.7 0.7 -0.5
v -0.7 0.7 -0.8
v -0.6 0.5 0.9
v -0.6 0.5 0.7
v -0.6 0.5 -0.8
v -0.6 0.5 -1
v -0.6 0.7 0.9
v -0.6 0.7 0.7
v -0.6 0.7 -0.8
v -0.6 0.7 -1
v -0.5 0.5 1
v -0.5 0.5 0.9
v -0.5 0.5 -1
v -0.5 0.5 -1.1
v -0.5 0.7 1
v -0.5 0.7 0.9
v -0.5 0.7 -1
v -0.5 0.7 -1.1
v -0.4 0.5 1.1
v -0.4 0.5 1
v -0.4 0.5 -1.1
v -0.4 0.5 -1.2
v -0.4 0.7 1.1
v -0.4 0.7 1
v -0.4 0.7 -1.1
v -0.4 0.7 -1.2
v -0.3 0.5 1.3
v -0.3 0.5 1.1
v -0.3 0.5 -1.2
v -0.3 0.5 -1.4
v -0.3 0.7 1.3
v -0.3 0.7 1.1
v -0.3 0.7 -1.2
v -0.3 0.7 -1.4
v -0.1 0.3 0.1
v -0.1 0.3 -0.2
v -0.1 0.5 0.1
v -0.1 0.5 -0.2
v 0 0.5 0.2
v 0 0.5 0.1
v 0 0.5 -0.2
v 0 0.5 -0.3
v 0 0.6 0.2
v 0 0.6 0.1
v 0 0.6 -0.2
v 0 0.6 -0.3
v 0.0999999 0.6 0.2
v 0.0999999 0.6 0.1
v 0.0999999 0.6 -0.2
v 0.0999999 0.6 -0.3
v 0.0999999 0.7 0.2
v 0.0999999 0.7 0.1
v 0.0999999 0.7 -0.2
v 0.0999999 0.7 -0.3
v 0.0999999 0.8 0.2
v 0.0999999 0.8 0.1
v 0.0999999 0.8 -0.2
v 0.0999999 0.8 -0.3
v 0.2 0.2 0.1
v 0.2 0.2 -0.2
v 0.2 0.4 0.1
v 0.2 0.4 -0.2
v 0.4 0.7 0.1
v 0.4 0.7 -0.2
v 0.4 0.8 0.1
v 0.4 0.8 -0.2
v 0.7 0.6 0.1
v 0.7 0.6 -0.2
v 0.7 0.7 0.1
v 0.7 0.7 -0.2
v 1.2 0.1 0.1
v 1.2 0.1 -0.2
v 1.2 0.7 0.1
v 1.2 0.7 -0.2
v -0.4 0.5 1.3
v -0.4 0.7 1.3
v -0.3 0.5 1.3
v -0.3 0.7 1.3
v -0.5 0.5 1.2
v -0.5 0.7 1.2
v -0.4 0.5 1.2
v -0.4 0.7 1.2
v -0.6 0.5 1.1
v -0.6 0.7 1.1
v -0.5 0.5 1.1
v -0.5 0.7 1.1
v -0.7 0.5 1
v -0.7 0.7 1
v -0.6 0.5 1
v -0.6 0.7 1
v -0.8 0.5 0.9
v -0.8 0.7 0.9
v -0.7 0.5 0.9
v -0.7 0.7 0.9
v -0.9 0.5 0.7
v -0.9 0.7 0.7
v -0.8 0.5 0.7
v -0.8 0.7 0.7
v -1 0.5 0.5
v -1 0.7 0.5
v -0.9 0.5 0.5
v -0.9 0.7 0.5
v -1.1 0.5 0.2
v -1.1 0.7 0.2
v -1.1 0.8 0.2
v -1 0.5 0.2
v -1 0.7 0.2
v -0.8 0.5 0.2
v -0.8 0.7 0.2
v 0 0.5 0.2
v 0 0.6 0.2
v 0.0999999 0.6 0.2
v 0.0999999 0.7 0.2
v 0.0999999 0.8 0.2
v -1.2 0.4 0.1
v -1.2 0.7 0.1
v -1.1 0.5 0.1
v -1.1 0.7 0.1
v -0.2 0.2 0.1
v -0.2 0.4 0.1
v -0.1 0.3 0.1
v -0.1 0.5 0.1
v 0 0.5 0.1
v 0 0.6 0.1
v 0.0999999 0.3 0.1
v 0.0999999 0.5 0.1
v 0.0999999 0.6 0.1
v 0.0999999 0.7 0.1
v 0.0999999 0.8 0.1
v 0.2 0.2 0.1
v 0.2 0.4 0.1
v 0.2 0.5 0.1
v 0.4 0.3 0.1
v 0.4 0.4 0.1
v 0.4 0.6 0.1
v 0.4 0.7 0.1
v 0.4 0.8 0.1
v 0.7 0.2 0.1
v 0.7 0.3 0.1
v 0.7 0.5 0.1
v 0.7 0.6 0.1
v 0.7 0.7 0.1
v 1 0.1 0.1
v 1 0.2 0.1
v 1 0.5 0.1
v 1 0.6 0.1
v 1 0.7 0.1
v 1.2 0.1 0.1
v 1.2 0.7 0.1
v -1.1 0.7 -0.0999999
v -1.1 0.8 -0.0999999
v 0 0.7 -0.0999999
v 0 0.8 -0.0999999
v -0.8 0.5 -0.5
v -0.8 0.7 -0.5
v -0.7 0.5 -0.5
v -0.7 0.7 -0.5
v -0.7 0.5 -0.8
v -0.7 0.7 -0.8
v -0.6 0.5 -0.8
v -0.6 0.7 -0.8
v -0.6 0.5 -1
v -0.6 0.7 -1
v -0.5 0.5 -1
v -0.5 0.7 -1
v -0.5 0.5 -1.1
v -0.5 0.7 -1.1
v -0.4 0.5 -1.1
v -0.4 0.7 -1.1
v -0.4 0.5 -1.2
v -0.4 0.7 -1.2
v -0.3 0.5 -1.2
v -0.3 0.7 -1.2
v -0.4 0.5 1.1
v -0.4 0.7 1.1
v -0.3 0.5 1.1
v -0.3 0.7 1.1
v -0.5 0.5 1
v -0.5 0.7 1
v -0.4 0.5 1
v -0.4 0.7 1
v -0.6 0.5 0.9
v -0.6 0.7 0.9
v -0.5 0.5 0.9
v -0.5 0.7 0.9
v -0.7 0.5 0.7
v -0.7 0.7 0.7
v -0.6 0.5 0.7
v -0.6 0.7 0.7
v -0.8 0.5 0.4
v -0.8 0.7 0.4
v -0.7 0.5 0.4
v -0.7 0.7 0.4
v -1.1 0.7 1.19209e-07
v -1.1 0.8 1.19209e-07
v 0 0.7 1.19209e-07
v 0 0.8 1.19209e-07
v -1.2 0.4 -0.2
v -1.2 0.7 -0.2
v -1.1 0.5 -0.2
v -1.1 0.7 -0.2
v -0.2 0.2 -0.2
v -0.2 0.4 -0.2
v -0.1 0.3 -0.2
v -0.1 0.5 -0.2
v 0 0.5 -0.2
v 0 0.6 -0.2
v 0.0999999 0.3 -0.2
v 0.0999999 0.5 -0.2
v 0.0999999 0.6 -0.2
v 0.0999999 0.7 -0.2
v 0.0999999 0.8 -0.2
v 0.2 0.2 -0.2
v 0.2 0.4 -0.2
v 0.2 0.5 -0.2
v 0.4 0.3 -0.2
v 0.4 0.4 -0.2
v 0.4 0.6 -0.2
v 0.4 0.7 -0.2
v 0.4 0.8 -0.2
v 0.7 0.2 -0.2
v 0.7 0.3 -0.2
v 0.7 0.5 -0.2
v 0.7 0.6 -0.2
v 0.7 0.7 -0.2
v 1 0.1 -0.2
v 1 0.2 -0.2
v 1 0.5 -0.2
v 1 0.6 -0.2
v 1 0.7 -0.2
v 1.2 0.1 -0.2
v 1.2 0.7 -0.2
v -1.1 0.5 -0.3
v -1.1 0.7 -0.3
v -1.1 0.8 -0.3
v -1 0.5 -0.3
v -1 0.7 -0.3
v -0.8 0.5 -0.3
v -0.8 0.7 -0.3
v 0 0.5 -0.3
v 0 0.6 -0.3
v 0.0999999 0.6 -0.3
v 0.0999999 0.7 -0.3
v 0.0999999 0.8 -0.3
v -1 0.5 -0.6
v -1 0.7 -0.6
v -0.9 0.5 -0.6
v -0.9 0.7 -0.6
v -0.9 0.5 -0.8
v -0.9 0.7 -0.8
v -0.8 0.5 -0.8
v -0.8 0.7 -0.8
v -0.8 0.5 -1
v -0.8 0.7 -1
v -0.7 0.5 -1
v -0.7 0.7 -1
v -0.7 0.5 -1.1
v -0.7 0.7 -1.1
v -0.6 0.5 -1.1
v -0.6 0.7 -1.1
v -0.6 0.5 -1.2
v -0.6 0.7 -1.2
v -0.5 0.5 -1.2
v -0.5 0.7 -1.2
v -0.5 0.5 -1.3
v -0.5 0.7 -1.3
v -0.4 0.5 -1.3
v -0.4 0.7 -1.3
v -0.4 0.5 -1.4
v -0.4 0.7 -1.4
v -0.3 0.5 -1.4
v -0.3 0.7 -1.4
v 1 0.1 0.1
v 1.2 0.1 0.1
v 1 0.1 -0.2
v 1.2 0.1 -0.2
v -0.2 0.2 0.1
v 0.2 0.2 0.1
v 0.7 0.2 0.1
v 1 0.2 0.1
v -0.2 0.2 -0.2
v 0.2 0.2 -0.2
v 0.7 0.2 -0.2
v 1 0.2 -0.2
v 0.4 0.3 0.1
v 0.7 0.3 0.1
v 0.4 0.3 -0.2
v 0.7 0.3 -0.2
v -1.2 0.4 0.1
v -0.2 0.4 0.1
v 0.2 0.4 0.1
v 0.4 0.4 0.1
v -1.2 0.4 -0.2
v -0.2 0.4 -0.2
v 0.2 0.4 -0.2
v 0.4 0.4 -0.2
v -0.4 0.5 1.3
v -0.3 0.5 1.3
v -0.5 0.5 1.2
v -0.4 0.5 1.2
v -0.6 0.5 1.1
v -0.5 0.5 1.1
v -0.4 0.5 1.1
v -0.3 0.5 1.1
v -0.7 0.5 1
v -0.6 0.5 1
v -0.5 0.5 1
v -0.4 0.5 1
v -0.8 0.5 0.9
v -0.7 0.5 0.9
v -0.6 0.5 0.9
v -0.5 0.5 0.9
v -0.9 0.5 0.7
v -0.8 0.5 0.7
v -0.7 0.5 0.7
v -0.6 0.5 0.7
v -1 0.5 0.5
v -0.9 0.5 0.5
v -0.8 0.5 0.4
v -0.7 0.5 0.4
v -1.1 0.5 0.2
v -1 0.5 0.2
v -0.8 0.5 0.2
v 0 0.5 0.2
v -1.1 0.5 0.1
v -0.1 0.5 0.1
v 0 0.5 0.1
v 0.0999999 0.5 0.1
v -1.1 0.5 -0.2
v -0.1 0.5 -0.2
v 0 0.5 -0.2
v 0.0999999 0.5 -0.2
v -1.1 0.5 -0.3
v -1 0.5 -0.3
v -0.8 0.5 -0.3
v 0 0.5 -0.3
v -0.8 0.5 -0.5
v -0.7 0.5 -0.5
v -1 0.5 -0.6
v -0.9 0.5 -0.6
v -0.9 0.5 -0.8
v -0.8 0.5 -0.8
v -0.7 0.5 -0.8
v -0.6 0.5 -0.8
v -0.8 0.5 -1
v -0.7 0.5 -1
v -0.6 0.5 -1
v -0.5 0.5 -1
v -0.7 0.5 -1.1
v -0.6 0.5 -1.1
v -0.5 0.5 -1.1
v -0.4 0.5 -1.1
v -0.6 0.5 -1.2
v -0.5 0.5 -1.2
v -0.4 0.5 -1.2
v -0.3 0.5 -1.2
v -0.5 0.5 -1.3
v -0.4 0.5 -1.3
v -0.4 0.5 -1.4
v -0.3 0.5 -1.4
v 0 0.6 0.2
v 0.0999999 0.6 0.2
v 0 0.6 0.1
v 0.0999999 0.6 0.1
v 0 0.6 -0.2
v 0.0999999 0.6 -0.2
v 0 0.6 -0.3
v 0.0999999 0.6 -0.3
v -0.1 0.3 0.1
v 0.0999999 0.3 0.1
v -0.1 0.3 -0.2
v 0.0999999 0.3 -0.2
v 0.7 0.6 0.1
v 1 0.6 0.1
v 0.7 0.6 -0.2
v 1 0.6 -0.2
v -0.4 0.7 1.3
v -0.3 0.7 1.3
v -0.5 0.7 1.2
v -0.4 0.7 1.2
v -0.6 0.7 1.1
v -0.5 0.7 1.1
v -0.4 0.7 1.1
v -0.3 0.7 1.1
v -0.7 0.7 1
v -0.6 0.7 1
v -0.5 0.7 1
v -0.4 0.7 1
v -0.8 0.7 0.9
v -0.7 0.7 0.9
v -0.6 0.7 0.9
v -0.5 0.7 0.9
v -0.9 0.7 0.7
v -0.8 0.7 0.7
v -0.7 0.7 0.7
v -0.6 0.7 0.7
v -1 0.7 0.5
v -0.9 0.7 0.5
v -0.8 0.7 0.4
v -0.7 0.7 0.4
v -1 0.7 0.2
v -0.8 0.7 0.2
v -1.2 0.7 0.1
v -1.1 0.7 0.1
v 0.4 0.7 0.1
v 0.7 0.7 0.1
v 1 0.7 0.1
v 1.2 0.7 0.1
v -1.1 0.7 1.19209e-07
v 0 0.7 1.19209e-07
v -1.1 0.7 -0.0999999
v 0 0.7 -0.0999999
v -1.2 0.7 -0.2
v -1.1 0.7 -0.2
v 0.4 0.7 -0.2
v 0.7 0.7 -0.2
v 1 0.7 -0.2
v 1.2 0.7 -0.2
v -1 0.7 -0.3
v -0.8 0.7 -0.3
v -0.8 0.7 -0.5
v -0.7 0.7 -0.5
v -1 0.7 -0.6
v -0.9 0.7 -0.6
v -0.9 0.7 -0.8
v -0.8 0.7 -0.8
v -0.7 0.7 -0.8
v -0.6 0.7 -0.8
v -0.8 0.7 -1
v -0.7 0.7 -1
v -0.6 0.7 -1
v -0.5 0.7 -1
v -0.7 0.7 -1.1
v -0.6 0.7 -1.1
v -0.5 0.7 -1.1
v -0.4 0.7 -1.1
v -0.6 0.7 -1.2
v -0.5 0.7 -1.2
v -0.4 0.7 -1.2
v -0.3 0.7 -1.2
v -0.5 0.7 -1.3
v -0.4 0.7 -1.3
v -0.4 0.7 -1.4
v -0.3 0.7 -1.4
v -1.1 0.8 0.2
v 0.0999999 0.8 0.2
v 0.0999999 0.8 0.1
v 0.4 0.8 0.1
v -1.1 0.8 1.19209e-07
v 0 0.8 1.19209e-07
v -1.1 0.8 -0.0999999
v 0 0.8 -0.0999999
v 0.0999999 0.8 -0.2
v 0.4 0.8 -0.2
v -1.1 0.8 -0.3
v 0.0999999 0.8 -0.3

# faces
f 3/1/1 2/1/1 1/1/1
f 4/1/1 2/1/1 3/1/1
f 9/5/1 6/5/1 5/5/1
f 10/5/1 6/5/1 9/5/1
f 13/5/1 8/5/1 7/5/1
f 14/5/1 8/5/1 13/5/1
f 15/2/1 11/2/1 10/2/1
f 15/2/1 10/2/1 9/2/1
f 16/2/1 11/2/1 15/2/1
f 17/2/1 14/2/1 13/2/1
f 17/2/1 13/2/1 12/2/1
f 18/2/1 14/2/1 17/2/1
f 23/5/1 20/5/1 19/5/1
f 24/5/1 20/5/1 23/5/1
f 25/5/1 22/5/1 21/5/1
f 26/5/1 22/5/1 25/5/1
f 31/5/1 28/5/1 27/5/1
f 32/5/1 28/5/1 31/5/1
f 33/5/1 30/5/1 29/5/1
f 34/5/1 30/5/1 33/5/1
f 39/5/1 36/5/1 35/5/1
f 40/5/1 36/5/1 39/5/1
f 41/5/1 38/5/1 37/5/1
f 42/5/1 38/5/1 41/5/1
f 47/5/1 44/5/1 43/5/1
f 48/5/1 44/5/1 47/5/1
f 49/5/1 46/5/1 45/5/1
f 50/5/1 46/5/1 49/5/1
f 55/5/1 52/5/1 51/5/1
f 56/5/1 52/5/1 55/5/1
f 57/5/1 54/5/1 53/5/1
f 58/5/1 54/5/1 57/5/1
f 63/5/1 60/5/1 59/5/1
f 64/5/1 60/5/1 63/5/1
f 65/5/1 62/5/1 61/5/1
f 66/5/1 62/5/1 65/5/1
f 71/4/1 68/4/1 67/4/1
f 72/4/1 68/4/1 71/4/1
f 73/4/1 70/4/1 69/4/1
f 74/4/1 70/4/1 73/4/1
f 77/1/1 76/1/1 75/1/1
f 78/1/1 76/1/1 77/1/1
f 81/2/1 80/2/1 79/2/1
f 82/2/1 80/2/1 81/2/1
f 85/1/1 84/1/1 83/1/1
f 86/1/1 84/1/1 85/1/1
f 89/4/1 88/4/1 87/4/1
f 90/4/1 88/4/1 89/4/1
f 93/4/1 92/4/1 91/4/1
f 94/4/1 92/4/1 93/4/1
f 97/1/1 96/1/1 95/1/1
f 98/1/1 96/1/1 97/1/1
f 101/1/1 100/1/1 99/1/1
f 102/1/1 100/1/1 101/1/1
f 103/5/2 104/5/2 107/5/2
f 107/5/2 104/5/2 108/5/2
f 105/5/2 106/5/2 109/5/2
f 109/5/2 106/5/2 110/5/2
f 111/5/2 112/5/2 115/5/2
f 115/5/2 112/5/2 116/5/2
f 113/5/2 114/5/2 117/5/2
f 117/5/2 114/5/2 118/5/2
f 119/5/2 120/5/2 123/5/2
f 123/5/2 120/5/2 124/5/2
f 121/5/2 122/5/2 125/5/2
f 125/5/2 122/5/2 126/5/2
f 127/5/2 128/5/2 131/5/2
f 131/5/2 128/5/2 132/5/2
f 129/5/2 130/5/2 133/5/2
f 133/5/2 130/5/2 134/5/2
f 135/5/2 136/5/2 139/5/2
f 139/5/2 136/5/2 140/5/2
f 137/5/2 138/5/2 141/5/2
f 141/5/2 138/5/2 142/5/2
f 143/4/2 144/4/2 147/4/2
f 147/4/2 144/4/2 148/4/2
f 145/4/2 146/4/2 149/4/2
f 149/4/2 146/4/2 150/4/2
f 151/1/2 152/1/2 153/1/2
f 153/1/2 152/1/2 154/1/2
f 155/5/2 156/5/2 159/5/2
f 159/5/2 156/5/2 160/5/2
f 157/5/2 158/5/2 161/5/2
f 161/5/2 158/5/2 162/5/2
f 163/5/2 164/5/2 167/5/2
f 167/5/2 164/5/2 168/5/2
f 165/5/2 166/5/2 169/5/2
f 169/5/2 166/5/2 170/5/2
f 167/2/2 168/2/2 171/2/2
f 171/2/2 168/2/2 172/2/2
f 169/2/2 170/2/2 173/2/2
f 173/2/2 170/2/2 174/2/2
f 175/1/2 176/1/2 177/1/2
f 177/1/2 176/1/2 178/1/2
f 179/3/2 180/3/2 181/3/2
f 181/3/2 180/3/2 182/3/2
f 183/3/2 184/3/2 185/3/2
f 185/3/2 184/3/2 186/3/2
f 187/1/2 188/1/2 189/1/2
f 189/1/2 188/1/2 190/1/2
f 193/4/3 192/4/3 191/4/3
f 194/4/3 192/4/3 193/4/3
f 197/5/3 196/5/3 195/5/3
f 198/5/3 196/5/3 197/5/3
f 201/5/3 200/5/3 199/5/3
f 202/5/3 200/5/3 201/5/3
f 205/5/3 204/5/3 203/5/3
f 206/5/3 204/5/3 205/5/3
f 209/5/3 208/5/3 207/5/3
f 210/5/3 208/5/3 209/5/3
f 213/5/3 212/5/3 211/5/3
f 214/5/3 212/5/3 213/5/3
f 217/5/3 216/5/3 215/5/3
f 218/5/3 216/5/3 217/5/3
f 222/5/3 220/5/3 219/5/3
f 223/2/3 221/2/3 220/2/3
f 223/5/3 220/5/3 222/5/3
f 225/2/3 221/2/3 223/2/3
f 226/5/3 225/5/3 224/5/3
f 227/5/3 225/5/3 226/5/3
f 228/5/3 225/5/3 227/5/3
f 229/2/3 221/2/3 225/2/3
f 229/5/3 225/5/3 228/5/3
f 230/2/3 221/2/3 229/2/3
f 233/1/3 232/1/3 231/1/3
f 234/1/3 232/1/3 233/1/3
f 236/1/3 233/1/3 231/1/3
f 237/1/3 236/1/3 235/1/3
f 238/1/3 233/1/3 236/1/3
f 238/1/3 236/1/3 237/1/3
f 241/1/3 237/1/3 235/1/3
f 242/5/3 240/5/3 239/5/3
f 243/5/3 240/5/3 242/5/3
f 246/1/3 241/1/3 235/1/3
f 246/1/3 242/1/3 241/1/3
f 247/1/3 242/1/3 246/1/3
f 248/4/3 244/4/3 243/4/3
f 248/1/3 242/1/3 247/1/3
f 248/4/3 243/4/3 242/4/3
f 250/4/3 248/4/3 247/4/3
f 251/4/3 244/4/3 248/4/3
f 251/4/3 248/4/3 250/4/3
f 252/3/3 245/3/3 244/3/3
f 252/4/3 244/4/3 251/4/3
f 253/3/3 245/3/3 252/3/3
f 255/4/3 250/4/3 249/4/3
f 255/4/3 251/4/3 250/4/3
f 256/4/3 251/4/3 255/4/3
f 257/3/3 252/3/3 251/3/3
f 257/4/3 251/4/3 256/4/3
f 258/3/3 252/3/3 257/3/3
f 260/4/3 256/4/3 255/4/3
f 260/4/3 255/4/3 254/4/3
f 261/3/3 257/3/3 256/3/3
f 261/4/3 256/4/3 260/4/3
f 262/3/3 257/3/3 261/3/3
f 264/1/3 260/1/3 259/1/3
f 264/1/3 263/1/3 262/1/3
f 264/1/3 262/1/3 261/1/3
f 264/1/3 261/1/3 260/1/3
f 265/1/3 263/1/3 264/1/3
f 268/2/3 267/2/3 266/2/3
f 269/2/3 267/2/3 268/2/3
f 272/5/3 271/5/3 270/5/3
f 273/5/3 271/5/3 272/5/3
f 276/5/3 275/5/3 274/5/3
f 277/5/3 275/5/3 276/5/3
f 280/5/3 279/5/3 278/5/3
f 281/5/3 279/5/3 280/5/3
f 284/5/3 283/5/3 282/5/3
f 285/5/3 283/5/3 284/5/3
f 288/4/3 287/4/3 286/4/3
f 289/4/3 287/4/3 288/4/3
f 290/4/4 291/4/4 292/4/4
f 292/4/4 291/4/4 293/4/4
f 294/5/4 295/5/4 296/5/4
f 296/5/4 295/5/4 297/5/4
f 298/5/4 299/5/4 300/5/4
f 300/5/4 299/5/4 301/5/4
f 302/5/4 303/5/4 304/5/4
f 304/5/4 303/5/4 305/5/4
f 306/5/4 307/5/4 308/5/4
f 308/5/4 307/5/4 309/5/4
f 310/2/4 311/2/4 312/2/4
f 312/2/4 311/2/4 313/2/4
f 314/1/4 315/1/4 316/1/4
f 316/1/4 315/1/4 317/1/4
f 314/1/4 316/1/4 319/1/4
f 318/1/4 319/1/4 320/1/4
f 319/1/4 316/1/4 321/1/4
f 320/1/4 319/1/4 321/1/4
f 318/1/4 320/1/4 324/1/4
f 322/5/4 323/5/4 325/5/4
f 325/5/4 323/5/4 326/5/4
f 318/1/4 324/1/4 329/1/4
f 324/1/4 325/1/4 329/1/4
f 329/1/4 325/1/4 330/1/4
f 326/4/4 327/4/4 331/4/4
f 330/1/4 325/1/4 331/1/4
f 325/4/4 326/4/4 331/4/4
f 330/4/4 331/4/4 333/4/4
f 331/4/4 327/4/4 334/4/4
f 333/4/4 331/4/4 334/4/4
f 327/3/4 328/3/4 335/3/4
f 334/4/4 327/4/4 335/4/4
f 335/3/4 328/3/4 336/3/4
f 332/4/4 333/4/4 338/4/4
f 333/4/4 334/4/4 338/4/4
f 338/4/4 334/4/4 339/4/4
f 334/3/4 335/3/4 340/3/4
f 339/4/4 334/4/4 340/4/4
f 340/3/4 335/3/4 341/3/4
f 338/4/4 339/4/4 343/4/4
f 337/4/4 338/4/4 343/4/4
f 339/3/4 340/3/4 344/3/4
f 343/4/4 339/4/4 344/4/4
f 344/3/4 340/3/4 345/3/4
f 342/1/4 343/1/4 347/1/4
f 345/1/4 346/1/4 347/1/4
f 344/1/4 345/1/4 347/1/4
f 343/1/4 344/1/4 347/1/4
f 347/1/4 346/1/4 348/1/4
f 349/5/4 350/5/4 352/5/4
f 350/2/4 351/2/4 353/2/4
f 352/5/4 350/5/4 353/5/4
f 353/2/4 351/2/4 355/2/4
f 354/5/4 355/5/4 356/5/4
f 356/5/4 355/5/4 357/5/4
f 357/5/4 355/5/4 358/5/4
f 355/2/4 351/2/4 359/2/4
f 358/5/4 355/5/4 359/5/4
f 359/2/4 351/2/4 360/2/4
f 361/5/4 362/5/4 363/5/4
f 363/5/4 362/5/4 364/5/4
f 365/5/4 366/5/4 367/5/4
f 367/5/4 366/5/4 368/5/4
f 369/5/4 370/5/4 371/5/4
f 371/5/4 370/5/4 372/5/4
f 373/5/4 374/5/4 375/5/4
f 375/5/4 374/5/4 376/5/4
f 377/5/4 378/5/4 379/5/4
f 379/5/4 378/5/4 380/5/4
f 381/5/4 382/5/4 383/5/4
f 383/5/4 382/5/4 384/5/4
f 385/4/4 386/4/4 387/4/4
f 387/4/4 386/4/4 388/4/4
f 391/1/5 390/1/5 389/1/5
f 392/1/5 390/1/5 391/1/5
f 397/1/5 394/1/5 393/1/5
f 398/1/5 394/1/5 397/1/5
f 399/4/5 396/4/5 395/4/5
f 400/4/5 396/4/5 399/4/5
f 403/4/5 402/4/5 401/4/5
f 404/4/5 402/4/5 403/4/5
f 409/1/5 406/1/5 405/1/5
f 410/1/5 406/1/5 409/1/5
f 411/4/5 408/4/5 407/4/5
f 412/4/5 408/4/5 411/4/5
f 416/4/5 414/4/5 413/4/5
f 418/5/5 416/5/5 415/5/5
f 419/4/5 414/4/5 416/4/5
f 419/5/5 416/5/5 418/5/5
f 420/4/5 414/4/5 419/4/5
f 422/5/5 418/5/5 417/5/5
f 422/5/5 419/5/5 418/5/5
f 423/5/5 419/5/5 422/5/5
f 424/5/5 419/5/5 423/5/5
f 426/5/5 422/5/5 421/5/5
f 426/5/5 423/5/5 422/5/5
f 427/5/5 423/5/5 426/5/5
f 428/5/5 423/5/5 427/5/5
f 430/5/5 426/5/5 425/5/5
f 430/5/5 427/5/5 426/5/5
f 431/5/5 427/5/5 430/5/5
f 432/5/5 427/5/5 431/5/5
f 434/5/5 430/5/5 429/5/5
f 434/5/5 431/5/5 430/5/5
f 435/5/5 431/5/5 434/5/5
f 435/5/5 434/5/5 433/5/5
f 436/5/5 431/5/5 435/5/5
f 438/5/5 435/5/5 433/5/5
f 439/5/5 435/5/5 438/5/5
f 441/5/5 439/5/5 438/5/5
f 441/5/5 440/5/5 439/5/5
f 441/5/5 438/5/5 437/5/5
f 442/5/5 440/5/5 441/5/5
f 443/5/5 440/5/5 442/5/5
f 446/5/5 444/5/5 443/5/5
f 446/5/5 443/5/5 442/5/5
f 447/5/5 444/5/5 446/5/5
f 448/5/5 444/5/5 447/5/5
f 449/5/5 446/5/5 445/5/5
f 449/5/5 447/5/5 446/5/5
f 450/5/5 447/5/5 449/5/5
f 451/5/5 447/5/5 450/5/5
f 452/5/5 447/5/5 451/5/5
f 453/5/5 451/5/5 450/5/5
f 455/5/5 453/5/5 450/5/5
f 455/5/5 454/5/5 453/5/5
f 456/5/5 454/5/5 455/5/5
f 457/5/5 454/5/5 456/5/5
f 458/5/5 454/5/5 457/5/5
f 459/5/5 454/5/5 458/5/5
f 461/5/5 460/5/5 459/5/5
f 461/5/5 459/5/5 458/5/5
f 462/5/5 460/5/5 461/5/5
f 463/5/5 460/5/5 462/5/5
f 465/5/5 464/5/5 463/5/5
f 465/5/5 463/5/5 462/5/5
f 466/5/5 464/5/5 465/5/5
f 467/5/5 464/5/5 466/5/5
f 469/5/5 468/5/5 467/5/5
f 469/5/5 467/5/5 466/5/5
f 470/5/5 468/5/5 469/5/5
f 471/5/5 468/5/5 470/5/5
f 473/5/5 471/5/5 470/5/5
f 474/4/5 472/4/5 471/4/5
f 474/5/5 471/5/5 473/5/5
f 475/4/5 472/4/5 474/4/5
f 476/4/5 472/4/5 475/4/5
f 479/5/5 478/5/5 477/5/5
f 480/5/5 478/5/5 479/5/5
f 483/5/5 482/5/5 481/5/5
f 484/5/5 482/5/5 483/5/5
f 485/1/6 486/1/6 487/1/6
f 487/1/6 486/1/6 488/1/6
f 489/3/6 490/3/6 491/3/6
f 491/3/6 490/3/6 492/3/6
f 493/4/6 494/4/6 496/4/6
f 495/5/6 496/5/6 498/5/6
f 496/4/6 494/4/6 499/4/6
f 498/5/6 496/5/6 499/5/6
f 499/4/6 494/4/6 500/4/6
f 497/5/6 498/5/6 502/5/6
f 498/5/6 499/5/6 502/5/6
f 502/5/6 499/5/6 503/5/6
f 503/5/6 499/5/6 504/5/6
f 501/5/6 502/5/6 506/5/6
f 502/5/6 503/5/6 506/5/6
f 506/5/6 503/5/6 507/5/6
f 507/5/6 503/5/6 508/5/6
f 505/5/6 506/5/6 510/5/6
f 506/5/6 507/5/6 510/5/6
f 510/5/6 507/5/6 511/5/6
f 511/5/6 507/5/6 512/5/6
f 509/5/6 510/5/6 514/5/6
f 510/5/6 511/5/6 514/5/6
f 514/5/6 511/5/6 515/5/6
f 513/5/6 514/5/6 515/5/6
f 515/5/6 511/5/6 516/5/6
f 513/5/6 515/5/6 517/5/6
f 517/5/6 515/5/6 518/5/6
f 519/1/6 520/1/6 525/1/6
f 519/1/6 525/1/6 527/1/6
f 525/5/6 526/5/6 527/5/6
f 527/5/6 526/5/6 528/5/6
f 519/1/6 527/1/6 529/1/6
f 529/1/6 527/1/6 530/1/6
f 521/3/6 522/3/6 531/3/6
f 531/3/6 522/3/6 532/3/6
f 523/1/6 524/1/6 533/1/6
f 533/1/6 524/1/6 534/1/6
f 535/5/6 536/5/6 537/5/6
f 535/5/6 537/5/6 539/5/6
f 537/5/6 538/5/6 539/5/6
f 539/5/6 538/5/6 540/5/6
f 540/5/6 538/5/6 541/5/6
f 541/5/6 538/5/6 542/5/6
f 542/5/6 538/5/6 543/5/6
f 543/5/6 544/5/6 545/5/6
f 542/5/6 543/5/6 545/5/6
f 545/5/6 544/5/6 546/5/6
f 546/5/6 544/5/6 547/5/6
f 547/5/6 548/5/6 549/5/6
f 546/5/6 547/5/6 549/5/6
f 549/5/6 548/5/6 550/5/6
f 550/5/6 548/5/6 551/5/6
f 551/5/6 552/5/6 553/5/6
f 550/5/6 551/5/6 553/5/6
f 553/5/6 552/5/6 554/5/6
f 554/5/6 552/5/6 555/5/6
f 554/5/6 555/5/6 557/5/6
f 555/4/6 556/4/6 558/4/6
f 557/5/6 555/5/6 558/5/6
f 558/4/6 556/4/6 559/4/6
f 559/4/6 556/4/6 560/4/6
f 561/2/6 562/2/6 563/2/6
f 561/2/6 563/2/6 565/2/6
f 565/2/6 563/2/6 566/2/6
f 566/2/6 563/2/6 568/2/6
f 563/3/6 564/3/6 569/3/6
f 567/2/6 568/2/6 569/2/6
f 568/2/6 563/2/6 569/2/6
f 569/3/6 564/3/6 570/3/6
f 567/2/6 569/2/6 571/2/6
f 571/2/6 569/2/6 572/2/6
